<?xml version="1.0" standalone="no"?>
<!DOCTYPE svg PUBLIC "-//W3C//DTD SVG 20010904//EN"
 "http://www.w3.org/TR/2001/REC-SVG-20010904/DTD/svg10.dtd">
<svg version="1.0" xmlns="http://www.w3.org/2000/svg"
 width="701.000000pt" height="701.000000pt" viewBox="0 0 701.000000 701.000000"
 preserveAspectRatio="xMidYMid meet">
<metadata>
Created by potrace 1.14, written by Peter Selinger 2001-2017
</metadata>
<g transform="translate(0.000000,701.000000) scale(0.100000,-0.100000)"
fill="#000000" stroke="none">
<path d="M1517 6003 c-4 -3 -7 -35 -7 -69 l0 -63 43 -6 c23 -4 155 -23 292
-44 l250 -37 3 -2282 2 -2282 -22 -4 c-13 -3 -146 -22 -295 -42 l-273 -37 0
-69 0 -68 1020 0 1020 0 0 70 c0 50 -4 70 -13 70 -15 0 -548 68 -594 75 l-33
6 0 944 c0 520 3 945 8 945 4 0 75 -13 157 -29 232 -46 335 -55 555 -48 498
16 905 132 1239 355 107 71 279 236 354 340 116 162 203 372 243 587 27 143
27 503 0 625 -56 258 -158 443 -334 612 -281 268 -713 417 -1298 448 -209 11
-2307 14 -2317 3z m1928 -203 c732 -62 1076 -317 1181 -875 29 -151 26 -494
-4 -664 -75 -421 -274 -712 -597 -874 -282 -141 -731 -177 -1077 -86 l-38 10
0 1249 0 1250 208 0 c114 0 261 -5 327 -10z"/>
</g>
</svg>
